<svg xmlns="http://www.w3.org/2000/svg" width="358" height="194" viewBox="0 0 358 194">
  <defs>
    <style>
      .cls-1 {
        fill: #fff;
        fill-rule: evenodd;
      }
    </style>
  </defs>
  <g id="Artboard_1" data-name="Artboard 1">
    <path id="Triply" class="cls-1" d="M8.007,40.712a24.4,24.4,0,0,0,15,5.2c3.6,0,9.4-.4,9.4-5.2,0-2.4-2.2-3.8-4.6-3.8-0.6,0-4,.6-4.8.6-8,0-14.2-6.8-14.2-13.4,0-8.8,7.6-16.2,22.2-16.2,13.6,0,26.2,5.4,42,14.4-6.6,7.2-10.2,18-10.2,31.6a151.963,151.963,0,0,0,2.2,21.6c0.8,7.6,2.2,15.4,2.2,21.6,0,16-3.2,26-15,26-3,0-6.8,0-6.8,4.2,0,4.8,4.4,4.4,6.8,4.4,23.8,0,23.8-25.4,23.8-34.6,0-6.8-1.2-14.8-2.2-22.8a139.527,139.527,0,0,1-2-20.4c0-10,1.6-20.8,9-27.6,12.4,6.8,26.6,13.6,40.4,13.6,11.8,0,19.2-6,19.2-14,0-7.4-7-16.6-29.6-16.6-12.8,0-23,2.4-30.6,7-16.6-9.2-31.2-16.6-49.2-16.6-21.4,0-31.2,12.2-31.2,24.4A21.628,21.628,0,0,0,8.007,40.712Zm123.4-14.6c0,3.6-5.2,5.6-10.2,5.6-10,0-22-4.4-32.2-10.4,5.6-2.4,13.4-3.6,21.8-3.6C125.805,17.713,131.405,22.113,131.405,26.113Zm1.4,94.8c4.6-25.6,8.6-50,29.4-51.2,2.4-.2,4.2-1.6,4.2-4a4.534,4.534,0,0,0-4.8-4.4c-10,0-20.8,6-25.2,19.2,0.4-10-5.2-16.8-9-16.8a4.4,4.4,0,0,0-4.2,4.4,3.817,3.817,0,0,0,1.2,3.2c2.6,2.6,4.4,6,4.4,14.8,0,6.6-5.6,39.4-5.6,40.8a4.111,4.111,0,0,0,4,4.4,4.324,4.324,0,0,0,4.4-3.8Zm53.6-82.2-6-6.6,1,9.2-9.8,5.6,10,0.8-0.2,11.6,5.6-11,14.8,2.4-12.2-7.8,8-5.6Zm-1.4,24.6a4.321,4.321,0,0,0-5.4,3.2c-6,23.8-9,58.6-9,61.2a4.526,4.526,0,0,0,4.6,4.6,4.4,4.4,0,0,0,4.4-4.2c1.2-19,5-45,8.6-59.4a2.175,2.175,0,0,0,.2-1A4.683,4.683,0,0,0,185.007,63.312Zm53.4-1.8c-22.6,0-40,32.8-40.4,79.8-11,2.8-16.2,11.2-16.2,15.8,0,2.2,1.2,4,3.6,4,1.8,0,3.6-1,3.8-2.2,0.6-3.2,4.2-7.6,8.8-9,0.2,24.6,9.4,44,25.2,44,10,0,16.8-6.4,16.8-20,0-16.8-12.6-34-33.2-34,0.8-39.8,15.6-69.8,31.6-69.8,9.6,0,12,14.4,12,20.8,0,21-7.4,32.4-16.6,32.4-5.2,0-7.2-3.8-8.6-6.6a4.611,4.611,0,0,0-4-2.2,4.312,4.312,0,0,0-4.4,4.4c0,2.8,5,12.8,17,12.8,13.6,0,25.6-14,25.6-40.8C259.4,73.912,252.2,61.512,238.4,61.512ZM223,185.91c-7.4,0-16-12.8-16.2-37.6,15.2-.4,24.2,13.2,24.2,25.8C231,181.51,228.8,185.91,223,185.91Zm68.4-180a4.419,4.419,0,0,0-2.8,4.2,6.182,6.182,0,0,0,.4,1.6c0.6,1,.8,3.6.8,7.6,0,8.2-2.8,18.4-7.2,36.6-3.8,15.4-9.8,44.2-9.8,60.2,0,5.6.4,14.4,6,14.4a4.313,4.313,0,0,0,4.4-4.4,3.379,3.379,0,0,0-.6-2c-0.2-.6-0.8-2.4-0.8-8,0-16,6.2-44.8,10.6-62.8,2.8-11.6,6.2-24.6,6.2-34,0-6.4,0-13.8-5.4-13.8A4.776,4.776,0,0,0,291.4,5.913Zm25,60.8a4.485,4.485,0,0,0-4.4-4.6c-3.8,0-4.4,3.2-4.8,4.6-1.4,7.4-4.4,22.6-4.4,36.4,0,14,4.2,27.4,16.6,27.4,9.8,0,20.4-11.6,25.4-25.6-1.2,12.2-4.2,28.4-7.4,38.4a42.106,42.106,0,0,0-12.8-1.8c-21,0-46.8,13-46.8,33.6,0,12.2,8.8,17,18.6,17,17.8,0,37.4-14.4,46.2-37,1.8,0.8,6.2,3.8,6.2,9.4a4.271,4.271,0,0,0,4.2,4.4,4.439,4.439,0,0,0,4.4-4.4c0-7.6-5-14.2-11.6-18,5.2-17.2,6.6-33.6,7.2-42,0.6-9.4,2-29,2-38a4.111,4.111,0,0,0-4-4.4,4.449,4.449,0,0,0-4.6,4.2c0.2,24.2-14.8,55.4-27,55.4-6.8,0-7.6-12.8-7.6-18.6,0-12.8,2.8-27,4.4-35.6Zm-18.8,117.2c-5.4,0-10.8-3-10.8-9.4,0-14.2,21.2-24.8,37.8-24.8a42.415,42.415,0,0,1,10.4,1.2C327.2,170.91,311.4,183.91,297.6,183.91Z"/>
  </g>
</svg>
